REM DIRINDEX 1\2\6,1\2\7,1\2\8,1\3\9,1\3\10,1\3\11,1\4\12,1\4\13,1\4\14,1\5\15,1\5\16,1\5\17,1\5\18
REM DIRNAME folder01,folder02,folder03,folder04,folder05,folder06,folder07,folder08,folder09,folder10,folder11,folder12,folder13,folder14,folder15,folder16,folder17,folder18
TITLE ""
FILE "2Q_j_1625-1638.mp3" MP3
  TRACK 01 AUDIO
    TITLE "6:cjc019_1338"
    INDEX 01 00:00:00
  TRACK 02 AUDIO
    TITLE "0:"
    INDEX 01 00:01:44
  TRACK 03 AUDIO
    TITLE "7:cjc019_1339"
    INDEX 01 00:02:16
  TRACK 04 AUDIO
    TITLE "0:"
    INDEX 01 00:05:20
  TRACK 05 AUDIO
    TITLE "8:cjc019_1340"
    INDEX 01 00:05:71
  TRACK 06 AUDIO
    TITLE "0:"
    INDEX 01 00:10:35
  TRACK 07 AUDIO
    TITLE "6:cjc019_1341"
    INDEX 01 00:11:17
  TRACK 08 AUDIO
    TITLE "0:"
    INDEX 01 00:13:16
  TRACK 09 AUDIO
    TITLE "7:cjc019_1342"
    INDEX 01 00:14:00
  TRACK 10 AUDIO
    TITLE "0:"
    INDEX 01 00:15:56
  TRACK 11 AUDIO
    TITLE "8:cjc019_1343"
    INDEX 01 00:16:42
  TRACK 12 AUDIO
    TITLE "0:"
    INDEX 01 00:20:14
  TRACK 13 AUDIO
    TITLE "6:cjc019_1344"
    INDEX 01 00:20:73
  TRACK 14 AUDIO
    TITLE "0:"
    INDEX 01 00:22:56
  TRACK 15 AUDIO
    TITLE "7:cjc019_1345"
    INDEX 01 00:23:34
  TRACK 16 AUDIO
    TITLE "0:"
    INDEX 01 00:25:23
  TRACK 17 AUDIO
    TITLE "8:cjc019_1346"
    INDEX 01 00:26:05
  TRACK 18 AUDIO
    TITLE "0:"
    INDEX 01 00:29:25
  TRACK 19 AUDIO
    TITLE "6:cjc019_1347"
    INDEX 01 00:30:08
  TRACK 20 AUDIO
    TITLE "0:"
    INDEX 01 00:31:29
  TRACK 21 AUDIO
    TITLE "7:cjc019_1348"
    INDEX 01 00:32:13
  TRACK 22 AUDIO
    TITLE "0:"
    INDEX 01 00:33:58
  TRACK 23 AUDIO
    TITLE "8:cjc019_1349"
    INDEX 01 00:34:38
  TRACK 24 AUDIO
    TITLE "0:"
    INDEX 01 00:36:38
  TRACK 25 AUDIO
    TITLE "6:cjc019_1350"
    INDEX 01 00:37:20
  TRACK 26 AUDIO
    TITLE "0:"
    INDEX 01 00:39:11
  TRACK 27 AUDIO
    TITLE "7:cjc019_1351"
    INDEX 01 00:39:68
  TRACK 28 AUDIO
    TITLE "0:"
    INDEX 01 00:41:40
  TRACK 29 AUDIO
    TITLE "8:cjc019_1352"
    INDEX 01 00:42:19
  TRACK 30 AUDIO
    TITLE "0:"
    INDEX 01 00:45:53
  TRACK 31 AUDIO
    TITLE "6:cjc019_1353"
    INDEX 01 00:46:33
  TRACK 32 AUDIO
    TITLE "0:"
    INDEX 01 00:48:20
  TRACK 33 AUDIO
    TITLE "7:cjc019_1354"
    INDEX 01 00:49:00
  TRACK 34 AUDIO
    TITLE "0:"
    INDEX 01 00:50:74
  TRACK 35 AUDIO
    TITLE "8:cjc019_1355"
    INDEX 01 00:51:58
  TRACK 36 AUDIO
    TITLE "0:"
    INDEX 01 00:55:16
  TRACK 37 AUDIO
    TITLE "6:cjc019_1356"
    INDEX 01 00:55:69
  TRACK 38 AUDIO
    TITLE "0:"
    INDEX 01 00:57:25
  TRACK 39 AUDIO
    TITLE "7:cjc019_1357"
    INDEX 01 00:58:03
  TRACK 40 AUDIO
    TITLE "0:"
    INDEX 01 00:59:20
  TRACK 41 AUDIO
    TITLE "8:cjc019_1358"
    INDEX 01 00:59:73
  TRACK 42 AUDIO
    TITLE "0:"
    INDEX 01 01:03:59
  TRACK 43 AUDIO
    TITLE "6:cjc019_1359"
    INDEX 01 01:04:37
  TRACK 44 AUDIO
    TITLE "0:"
    INDEX 01 01:07:10
  TRACK 45 AUDIO
    TITLE "7:cjc019_1360"
    INDEX 01 01:07:66
  TRACK 46 AUDIO
    TITLE "0:"
    INDEX 01 01:10:02
  TRACK 47 AUDIO
    TITLE "8:cjc019_1361"
    INDEX 01 01:10:53
  TRACK 48 AUDIO
    TITLE "0:"
    INDEX 01 01:14:43
  TRACK 49 AUDIO
    TITLE "6:cjc019_1362"
    INDEX 01 01:15:19
  TRACK 50 AUDIO
    TITLE "0:"
    INDEX 01 01:17:33
  TRACK 51 AUDIO
    TITLE "7:cjc019_1363"
    INDEX 01 01:18:15
  TRACK 52 AUDIO
    TITLE "0:"
    INDEX 01 01:20:20
  TRACK 53 AUDIO
    TITLE "8:cjc019_1364"
    INDEX 01 01:20:71
  TRACK 54 AUDIO
    TITLE "0:"
    INDEX 01 01:24:65
  TRACK 55 AUDIO
    TITLE "6:cjc019_1365"
    INDEX 01 01:25:43
  TRACK 56 AUDIO
    TITLE "0:"
    INDEX 01 01:27:55
  TRACK 57 AUDIO
    TITLE "7:cjc019_1366"
    INDEX 01 01:28:37
  TRACK 58 AUDIO
    TITLE "0:"
    INDEX 01 01:30:50
  TRACK 59 AUDIO
    TITLE "8:cjc019_1367"
    INDEX 01 01:31:24
  TRACK 60 AUDIO
    TITLE "0:"
    INDEX 01 01:34:12
  TRACK 61 AUDIO
    TITLE "6:cjc019_1368"
    INDEX 01 01:34:67
  TRACK 62 AUDIO
    TITLE "0:"
    INDEX 01 01:37:01
  TRACK 63 AUDIO
    TITLE "7:cjc019_1369"
    INDEX 01 01:37:58
  TRACK 64 AUDIO
    TITLE "0:"
    INDEX 01 01:39:53
  TRACK 65 AUDIO
    TITLE "8:cjc019_1370"
    INDEX 01 01:40:35
  TRACK 66 AUDIO
    TITLE "0:"
    INDEX 01 01:43:13
  TRACK 67 AUDIO
    TITLE "6:cjc019_1371"
    INDEX 01 01:43:70
  TRACK 68 AUDIO
    TITLE "0:"
    INDEX 01 01:45:67
  TRACK 69 AUDIO
    TITLE "7:cjc019_1372"
    INDEX 01 01:46:49
  TRACK 70 AUDIO
    TITLE "0:"
    INDEX 01 01:48:50
  TRACK 71 AUDIO
    TITLE "8:cjc019_1373"
    INDEX 01 01:49:26
  TRACK 72 AUDIO
    TITLE "0:"
    INDEX 01 01:52:63
  TRACK 73 AUDIO
    TITLE "6:cjc019_1374"
    INDEX 01 01:53:45
  TRACK 74 AUDIO
    TITLE "0:"
    INDEX 01 01:55:30
  TRACK 75 AUDIO
    TITLE "7:cjc019_1375"
    INDEX 01 01:56:16
  TRACK 76 AUDIO
    TITLE "0:"
    INDEX 01 02:01:74
  TRACK 77 AUDIO
    TITLE "8:cjc019_1376"
    INDEX 01 02:02:54
  TRACK 78 AUDIO
    TITLE "0:"
    INDEX 01 02:05:52
  TRACK 79 AUDIO
    TITLE "6:cjc019_1377"
    INDEX 01 02:06:32
  TRACK 80 AUDIO
    TITLE "0:"
    INDEX 01 02:08:09
  TRACK 81 AUDIO
    TITLE "7:cjc019_1378"
    INDEX 01 02:08:66
  TRACK 82 AUDIO
    TITLE "0:"
    INDEX 01 02:11:37
  TRACK 83 AUDIO
    TITLE "8:cjc019_1379"
    INDEX 01 02:12:17
  TRACK 84 AUDIO
    TITLE "0:"
    INDEX 01 02:16:23
